<svg xmlns="http://www.w3.org/2000/svg" xmlns:xlink="http://www.w3.org/1999/xlink" width="500" zoomAndPan="magnify" viewBox="0 0 375 374.999991" height="500" preserveAspectRatio="xMidYMid meet" version="1.0"><defs><g/></defs><g fill="#000000" fill-opacity="1"><g transform="translate(1.969661, 214.543508)"><g><path d="M 57.09375 -8.828125 L 57.09375 -16.546875 L 64.71875 -16.546875 L 64.71875 -8.828125 Z M 57.09375 -17.640625 L 57.09375 -25.375 L 64.71875 -25.375 L 64.71875 -17.640625 Z M 57.09375 -26.46875 L 57.09375 -34.1875 L 64.71875 -34.1875 L 64.71875 -26.46875 Z M 57.09375 -35.1875 L 57.09375 -42.921875 L 64.71875 -42.921875 L 64.71875 -35.1875 Z M 57.09375 -44 L 57.09375 -51.734375 L 64.71875 -51.734375 L 64.71875 -44 Z M 57.09375 -52.828125 L 57.09375 -60.5625 L 64.71875 -60.5625 L 64.71875 -52.828125 Z M 48.359375 0 L 48.359375 -7.734375 L 56 -7.734375 L 56 0 Z M 48.359375 -8.828125 L 48.359375 -16.546875 L 56 -16.546875 L 56 -8.828125 Z M 48.359375 -17.640625 L 48.359375 -25.375 L 56 -25.375 L 56 -17.640625 Z M 48.359375 -26.46875 L 48.359375 -34.1875 L 56 -34.1875 L 56 -26.46875 Z M 48.359375 -35.1875 L 48.359375 -42.921875 L 56 -42.921875 L 56 -35.1875 Z M 48.359375 -44 L 48.359375 -51.734375 L 56 -51.734375 L 56 -44 Z M 48.359375 -52.828125 L 48.359375 -60.5625 L 56 -60.5625 L 56 -52.828125 Z M 48.359375 -61.640625 L 48.359375 -69.375 L 56 -69.375 L 56 -61.640625 Z M 39.75 0 L 39.75 -7.734375 L 47.375 -7.734375 L 47.375 0 Z M 39.75 -26.46875 L 39.75 -34.1875 L 47.375 -34.1875 L 47.375 -26.46875 Z M 39.75 -35.1875 L 39.75 -42.921875 L 47.375 -42.921875 L 47.375 -35.1875 Z M 39.75 -61.640625 L 39.75 -69.375 L 47.375 -69.375 L 47.375 -61.640625 Z M 31.015625 0 L 31.015625 -7.734375 L 38.65625 -7.734375 L 38.65625 0 Z M 31.015625 -26.46875 L 31.015625 -34.1875 L 38.65625 -34.1875 L 38.65625 -26.46875 Z M 31.015625 -35.1875 L 31.015625 -42.921875 L 38.65625 -42.921875 L 38.65625 -35.1875 Z M 31.015625 -61.640625 L 31.015625 -69.375 L 38.65625 -69.375 L 38.65625 -61.640625 Z M 22.296875 0 L 22.296875 -7.734375 L 29.9375 -7.734375 L 29.9375 0 Z M 22.296875 -8.828125 L 22.296875 -16.546875 L 29.9375 -16.546875 L 29.9375 -8.828125 Z M 22.296875 -17.640625 L 22.296875 -25.375 L 29.9375 -25.375 L 29.9375 -17.640625 Z M 22.296875 -26.46875 L 22.296875 -34.1875 L 29.9375 -34.1875 L 29.9375 -26.46875 Z M 22.296875 -35.1875 L 22.296875 -42.921875 L 29.9375 -42.921875 L 29.9375 -35.1875 Z M 22.296875 -44 L 22.296875 -51.734375 L 29.9375 -51.734375 L 29.9375 -44 Z M 22.296875 -52.828125 L 22.296875 -60.5625 L 29.9375 -60.5625 L 29.9375 -52.828125 Z M 22.296875 -61.640625 L 22.296875 -69.375 L 29.9375 -69.375 L 29.9375 -61.640625 Z M 13.671875 0 L 13.671875 -7.734375 L 21.3125 -7.734375 L 21.3125 0 Z M 13.671875 -8.828125 L 13.671875 -16.546875 L 21.3125 -16.546875 L 21.3125 -8.828125 Z M 13.671875 -17.640625 L 13.671875 -25.375 L 21.3125 -25.375 L 21.3125 -17.640625 Z M 13.671875 -26.46875 L 13.671875 -34.1875 L 21.3125 -34.1875 L 21.3125 -26.46875 Z M 13.671875 -35.1875 L 13.671875 -42.921875 L 21.3125 -42.921875 L 21.3125 -35.1875 Z M 13.671875 -44 L 13.671875 -51.734375 L 21.3125 -51.734375 L 21.3125 -44 Z M 13.671875 -52.828125 L 13.671875 -60.5625 L 21.3125 -60.5625 L 21.3125 -52.828125 Z M 13.671875 -61.640625 L 13.671875 -69.375 L 21.3125 -69.375 L 21.3125 -61.640625 Z M 4.953125 0 L 4.953125 -7.734375 L 12.59375 -7.734375 L 12.59375 0 Z M 4.953125 -61.640625 L 4.953125 -69.375 L 12.59375 -69.375 L 12.59375 -61.640625 Z M 4.953125 -61.640625 "/></g></g></g><g fill="#000000" fill-opacity="1"><g transform="translate(72.631631, 214.543508)"><g><path d="M 67.6875 0 L 67.6875 -7.734375 L 75.328125 -7.734375 L 75.328125 0 Z M 67.6875 -8.828125 L 67.6875 -16.546875 L 75.328125 -16.546875 L 75.328125 -8.828125 Z M 67.6875 -17.640625 L 67.6875 -25.375 L 75.328125 -25.375 L 75.328125 -17.640625 Z M 67.6875 -26.46875 L 67.6875 -34.1875 L 75.328125 -34.1875 L 75.328125 -26.46875 Z M 67.6875 -35.1875 L 67.6875 -42.921875 L 75.328125 -42.921875 L 75.328125 -35.1875 Z M 67.6875 -44 L 67.6875 -51.734375 L 75.328125 -51.734375 L 75.328125 -44 Z M 67.6875 -52.828125 L 67.6875 -60.5625 L 75.328125 -60.5625 L 75.328125 -52.828125 Z M 67.6875 -61.640625 L 67.6875 -69.375 L 75.328125 -69.375 L 75.328125 -61.640625 Z M 58.96875 0 L 58.96875 -7.734375 L 66.59375 -7.734375 L 66.59375 0 Z M 58.96875 -8.828125 L 58.96875 -16.546875 L 66.59375 -16.546875 L 66.59375 -8.828125 Z M 58.96875 -17.640625 L 58.96875 -25.375 L 66.59375 -25.375 L 66.59375 -17.640625 Z M 58.96875 -26.46875 L 58.96875 -34.1875 L 66.59375 -34.1875 L 66.59375 -26.46875 Z M 58.96875 -35.1875 L 58.96875 -42.921875 L 66.59375 -42.921875 L 66.59375 -35.1875 Z M 58.96875 -44 L 58.96875 -51.734375 L 66.59375 -51.734375 L 66.59375 -44 Z M 58.96875 -52.828125 L 58.96875 -60.5625 L 66.59375 -60.5625 L 66.59375 -52.828125 Z M 58.96875 -61.640625 L 58.96875 -69.375 L 66.59375 -69.375 L 66.59375 -61.640625 Z M 50.25 -44 L 50.25 -51.734375 L 57.875 -51.734375 L 57.875 -44 Z M 50.25 -52.828125 L 50.25 -60.5625 L 57.875 -60.5625 L 57.875 -52.828125 Z M 41.625 -35.1875 L 41.625 -42.921875 L 49.25 -42.921875 L 49.25 -35.1875 Z M 41.625 -44 L 41.625 -51.734375 L 49.25 -51.734375 L 49.25 -44 Z M 32.90625 -35.1875 L 32.90625 -42.921875 L 40.53125 -42.921875 L 40.53125 -35.1875 Z M 32.90625 -44 L 32.90625 -51.734375 L 40.53125 -51.734375 L 40.53125 -44 Z M 24.1875 -44 L 24.1875 -51.734375 L 31.8125 -51.734375 L 31.8125 -44 Z M 24.1875 -52.828125 L 24.1875 -60.5625 L 31.8125 -60.5625 L 31.8125 -52.828125 Z M 15.5625 0 L 15.5625 -7.734375 L 23.1875 -7.734375 L 23.1875 0 Z M 15.5625 -8.828125 L 15.5625 -16.546875 L 23.1875 -16.546875 L 23.1875 -8.828125 Z M 15.5625 -17.640625 L 15.5625 -25.375 L 23.1875 -25.375 L 23.1875 -17.640625 Z M 15.5625 -26.46875 L 15.5625 -34.1875 L 23.1875 -34.1875 L 23.1875 -26.46875 Z M 15.5625 -35.1875 L 15.5625 -42.921875 L 23.1875 -42.921875 L 23.1875 -35.1875 Z M 15.5625 -44 L 15.5625 -51.734375 L 23.1875 -51.734375 L 23.1875 -44 Z M 15.5625 -52.828125 L 15.5625 -60.5625 L 23.1875 -60.5625 L 23.1875 -52.828125 Z M 15.5625 -61.640625 L 15.5625 -69.375 L 23.1875 -69.375 L 23.1875 -61.640625 Z M 6.84375 0 L 6.84375 -7.734375 L 14.46875 -7.734375 L 14.46875 0 Z M 6.84375 -8.828125 L 6.84375 -16.546875 L 14.46875 -16.546875 L 14.46875 -8.828125 Z M 6.84375 -17.640625 L 6.84375 -25.375 L 14.46875 -25.375 L 14.46875 -17.640625 Z M 6.84375 -26.46875 L 6.84375 -34.1875 L 14.46875 -34.1875 L 14.46875 -26.46875 Z M 6.84375 -35.1875 L 6.84375 -42.921875 L 14.46875 -42.921875 L 14.46875 -35.1875 Z M 6.84375 -44 L 6.84375 -51.734375 L 14.46875 -51.734375 L 14.46875 -44 Z M 6.84375 -52.828125 L 6.84375 -60.5625 L 14.46875 -60.5625 L 14.46875 -52.828125 Z M 6.84375 -61.640625 L 6.84375 -69.375 L 14.46875 -69.375 L 14.46875 -61.640625 Z M 6.84375 -61.640625 "/></g></g></g><g fill="#000000" fill-opacity="1"><g transform="translate(153.600571, 214.543508)"><g><path d="M 69.078125 0 L 69.078125 -7.734375 L 76.703125 -7.734375 L 76.703125 0 Z M 77.703125 0 L 77.703125 -7.734375 L 85.328125 -7.734375 L 85.328125 0 Z M 69.078125 -8.828125 L 69.078125 -16.546875 L 76.703125 -16.546875 L 76.703125 -8.828125 Z M 69.078125 -52.828125 L 69.078125 -60.5625 L 76.703125 -60.5625 L 76.703125 -52.828125 Z M 69.078125 -61.640625 L 69.078125 -69.375 L 76.703125 -69.375 L 76.703125 -61.640625 Z M 77.703125 -61.640625 L 77.703125 -69.375 L 85.328125 -69.375 L 85.328125 -61.640625 Z M 60.359375 -8.828125 L 60.359375 -16.546875 L 67.984375 -16.546875 L 67.984375 -8.828125 Z M 60.359375 -17.640625 L 60.359375 -25.375 L 67.984375 -25.375 L 67.984375 -17.640625 Z M 60.359375 -44 L 60.359375 -51.734375 L 67.984375 -51.734375 L 67.984375 -44 Z M 60.359375 -52.828125 L 60.359375 -60.5625 L 67.984375 -60.5625 L 67.984375 -52.828125 Z M 51.640625 -17.640625 L 51.640625 -25.375 L 59.265625 -25.375 L 59.265625 -17.640625 Z M 51.640625 -26.46875 L 51.640625 -34.1875 L 59.265625 -34.1875 L 59.265625 -26.46875 Z M 51.640625 -35.1875 L 51.640625 -42.921875 L 59.265625 -42.921875 L 59.265625 -35.1875 Z M 51.640625 -44 L 51.640625 -51.734375 L 59.265625 -51.734375 L 59.265625 -44 Z M 43.015625 -26.46875 L 43.015625 -34.1875 L 50.640625 -34.1875 L 50.640625 -26.46875 Z M 43.015625 -35.1875 L 43.015625 -42.921875 L 50.640625 -42.921875 L 50.640625 -35.1875 Z M 34.296875 -17.640625 L 34.296875 -25.375 L 41.921875 -25.375 L 41.921875 -17.640625 Z M 34.296875 -26.46875 L 34.296875 -34.1875 L 41.921875 -34.1875 L 41.921875 -26.46875 Z M 34.296875 -35.1875 L 34.296875 -42.921875 L 41.921875 -42.921875 L 41.921875 -35.1875 Z M 34.296875 -44 L 34.296875 -51.734375 L 41.921875 -51.734375 L 41.921875 -44 Z M 25.5625 -8.828125 L 25.5625 -16.546875 L 33.203125 -16.546875 L 33.203125 -8.828125 Z M 25.5625 -17.640625 L 25.5625 -25.375 L 33.203125 -25.375 L 33.203125 -17.640625 Z M 25.5625 -44 L 25.5625 -51.734375 L 33.203125 -51.734375 L 33.203125 -44 Z M 25.5625 -52.828125 L 25.5625 -60.5625 L 33.203125 -60.5625 L 33.203125 -52.828125 Z M 16.953125 0 L 16.953125 -7.734375 L 24.484375 -7.734375 L 24.484375 0 Z M 8.71875 0 L 8.71875 -7.734375 L 16.359375 -7.734375 L 16.359375 0 Z M 16.953125 -8.828125 L 16.953125 -16.546875 L 24.484375 -16.546875 L 24.484375 -8.828125 Z M 16.953125 -52.828125 L 16.953125 -60.5625 L 24.484375 -60.5625 L 24.484375 -52.828125 Z M 16.953125 -61.640625 L 16.953125 -69.375 L 24.484375 -69.375 L 24.484375 -61.640625 Z M 8.515625 -61.640625 L 8.515625 -69.375 L 16.15625 -69.375 L 16.15625 -61.640625 Z M 8.515625 -61.640625 "/></g></g></g><g fill="#000000" fill-opacity="1"><g transform="translate(244.083644, 214.543508)"><g><path d="M 51.140625 0 L 51.140625 -7.734375 L 58.765625 -7.734375 L 58.765625 0 Z M 51.140625 -8.828125 L 51.140625 -16.546875 L 58.765625 -16.546875 L 58.765625 -8.828125 Z M 51.140625 -52.828125 L 51.140625 -60.5625 L 58.765625 -60.5625 L 58.765625 -52.828125 Z M 51.140625 -61.640625 L 51.140625 -69.375 L 58.765625 -69.375 L 58.765625 -61.640625 Z M 42.515625 0 L 42.515625 -7.734375 L 50.15625 -7.734375 L 50.15625 0 Z M 42.515625 -8.828125 L 42.515625 -16.546875 L 50.15625 -16.546875 L 50.15625 -8.828125 Z M 42.515625 -52.828125 L 42.515625 -60.5625 L 50.15625 -60.5625 L 50.15625 -52.828125 Z M 42.515625 -61.640625 L 42.515625 -69.375 L 50.15625 -69.375 L 50.15625 -61.640625 Z M 33.796875 0 L 33.796875 -7.734375 L 41.421875 -7.734375 L 41.421875 0 Z M 33.796875 -8.828125 L 33.796875 -16.546875 L 41.421875 -16.546875 L 41.421875 -8.828125 Z M 33.796875 -17.640625 L 33.796875 -25.375 L 41.421875 -25.375 L 41.421875 -17.640625 Z M 33.796875 -26.46875 L 33.796875 -34.1875 L 41.421875 -34.1875 L 41.421875 -26.46875 Z M 33.796875 -35.1875 L 33.796875 -42.921875 L 41.421875 -42.921875 L 41.421875 -35.1875 Z M 33.796875 -44 L 33.796875 -51.734375 L 41.421875 -51.734375 L 41.421875 -44 Z M 33.796875 -52.828125 L 33.796875 -60.5625 L 41.421875 -60.5625 L 41.421875 -52.828125 Z M 33.796875 -61.640625 L 33.796875 -69.375 L 41.421875 -69.375 L 41.421875 -61.640625 Z M 25.078125 0 L 25.078125 -7.734375 L 32.703125 -7.734375 L 32.703125 0 Z M 25.078125 -8.828125 L 25.078125 -16.546875 L 32.703125 -16.546875 L 32.703125 -8.828125 Z M 25.078125 -17.640625 L 25.078125 -25.375 L 32.703125 -25.375 L 32.703125 -17.640625 Z M 25.078125 -26.46875 L 25.078125 -34.1875 L 32.703125 -34.1875 L 32.703125 -26.46875 Z M 25.078125 -35.1875 L 25.078125 -42.921875 L 32.703125 -42.921875 L 32.703125 -35.1875 Z M 25.078125 -44 L 25.078125 -51.734375 L 32.703125 -51.734375 L 32.703125 -44 Z M 25.078125 -52.828125 L 25.078125 -60.5625 L 32.703125 -60.5625 L 32.703125 -52.828125 Z M 25.078125 -61.640625 L 25.078125 -69.375 L 32.703125 -69.375 L 32.703125 -61.640625 Z M 16.453125 0 L 16.453125 -7.734375 L 24.078125 -7.734375 L 24.078125 0 Z M 16.453125 -8.828125 L 16.453125 -16.546875 L 24.078125 -16.546875 L 24.078125 -8.828125 Z M 16.453125 -52.828125 L 16.453125 -60.5625 L 24.078125 -60.5625 L 24.078125 -52.828125 Z M 16.453125 -61.640625 L 16.453125 -69.375 L 24.078125 -69.375 L 24.078125 -61.640625 Z M 7.734375 0 L 7.734375 -7.734375 L 15.359375 -7.734375 L 15.359375 0 Z M 7.734375 -8.828125 L 7.734375 -16.546875 L 15.359375 -16.546875 L 15.359375 -8.828125 Z M 7.734375 -52.828125 L 7.734375 -60.5625 L 15.359375 -60.5625 L 15.359375 -52.828125 Z M 7.734375 -61.640625 L 7.734375 -69.375 L 15.359375 -69.375 L 15.359375 -61.640625 Z M 7.734375 -61.640625 "/></g></g></g><g fill="#000000" fill-opacity="1"><g transform="translate(307.312704, 214.543508)"><g><path d="M 51.140625 0 L 51.140625 -7.734375 L 58.765625 -7.734375 L 58.765625 0 Z M 51.140625 -8.828125 L 51.140625 -16.546875 L 58.765625 -16.546875 L 58.765625 -8.828125 Z M 51.140625 -52.828125 L 51.140625 -60.5625 L 58.765625 -60.5625 L 58.765625 -52.828125 Z M 51.140625 -61.640625 L 51.140625 -69.375 L 58.765625 -69.375 L 58.765625 -61.640625 Z M 42.515625 0 L 42.515625 -7.734375 L 50.15625 -7.734375 L 50.15625 0 Z M 42.515625 -8.828125 L 42.515625 -16.546875 L 50.15625 -16.546875 L 50.15625 -8.828125 Z M 42.515625 -52.828125 L 42.515625 -60.5625 L 50.15625 -60.5625 L 50.15625 -52.828125 Z M 42.515625 -61.640625 L 42.515625 -69.375 L 50.15625 -69.375 L 50.15625 -61.640625 Z M 33.796875 0 L 33.796875 -7.734375 L 41.421875 -7.734375 L 41.421875 0 Z M 33.796875 -8.828125 L 33.796875 -16.546875 L 41.421875 -16.546875 L 41.421875 -8.828125 Z M 33.796875 -17.640625 L 33.796875 -25.375 L 41.421875 -25.375 L 41.421875 -17.640625 Z M 33.796875 -26.46875 L 33.796875 -34.1875 L 41.421875 -34.1875 L 41.421875 -26.46875 Z M 33.796875 -35.1875 L 33.796875 -42.921875 L 41.421875 -42.921875 L 41.421875 -35.1875 Z M 33.796875 -44 L 33.796875 -51.734375 L 41.421875 -51.734375 L 41.421875 -44 Z M 33.796875 -52.828125 L 33.796875 -60.5625 L 41.421875 -60.5625 L 41.421875 -52.828125 Z M 33.796875 -61.640625 L 33.796875 -69.375 L 41.421875 -69.375 L 41.421875 -61.640625 Z M 25.078125 0 L 25.078125 -7.734375 L 32.703125 -7.734375 L 32.703125 0 Z M 25.078125 -8.828125 L 25.078125 -16.546875 L 32.703125 -16.546875 L 32.703125 -8.828125 Z M 25.078125 -17.640625 L 25.078125 -25.375 L 32.703125 -25.375 L 32.703125 -17.640625 Z M 25.078125 -26.46875 L 25.078125 -34.1875 L 32.703125 -34.1875 L 32.703125 -26.46875 Z M 25.078125 -35.1875 L 25.078125 -42.921875 L 32.703125 -42.921875 L 32.703125 -35.1875 Z M 25.078125 -44 L 25.078125 -51.734375 L 32.703125 -51.734375 L 32.703125 -44 Z M 25.078125 -52.828125 L 25.078125 -60.5625 L 32.703125 -60.5625 L 32.703125 -52.828125 Z M 25.078125 -61.640625 L 25.078125 -69.375 L 32.703125 -69.375 L 32.703125 -61.640625 Z M 16.453125 0 L 16.453125 -7.734375 L 24.078125 -7.734375 L 24.078125 0 Z M 16.453125 -8.828125 L 16.453125 -16.546875 L 24.078125 -16.546875 L 24.078125 -8.828125 Z M 16.453125 -52.828125 L 16.453125 -60.5625 L 24.078125 -60.5625 L 24.078125 -52.828125 Z M 16.453125 -61.640625 L 16.453125 -69.375 L 24.078125 -69.375 L 24.078125 -61.640625 Z M 7.734375 0 L 7.734375 -7.734375 L 15.359375 -7.734375 L 15.359375 0 Z M 7.734375 -8.828125 L 7.734375 -16.546875 L 15.359375 -16.546875 L 15.359375 -8.828125 Z M 7.734375 -52.828125 L 7.734375 -60.5625 L 15.359375 -60.5625 L 15.359375 -52.828125 Z M 7.734375 -61.640625 L 7.734375 -69.375 L 15.359375 -69.375 L 15.359375 -61.640625 Z M 7.734375 -61.640625 "/></g></g></g></svg>